<svg width="150" height="150" viewBox="0 0 150 150" fill="none" xmlns="http://www.w3.org/2000/svg">
<path d="M43.25 26.4004L17.5 41.2704V71.0004H20.5V43.0004L44.75 29.0004L43.25 26.4004Z" fill="#FF5F46"/>
<path d="M75 137.4L50.75 123.4L49.25 126L75 140.86L100.75 126L99.25 123.4L75 137.4Z" fill="#FF5F46"/>
<path d="M106.75 26.4004L105.25 29.0004L129.5 43.0004V71.0004H132.5V41.2704L106.75 26.4004Z" fill="#FF5F46"/>
<path d="M23.5 44.73V104.2L75 133.93L126.5 104.2V44.73L75 15L23.5 44.73ZM97 31.16L87.97 36.38C85.08 32.32 80.35 29.66 75 29.66C69.65 29.66 64.92 32.32 62.03 36.37L53 31.16L75 18.46L97 31.16ZM112.93 88.89C112.93 96.02 107.13 101.82 100 101.82C92.87 101.82 87.07 96.02 87.07 88.89C87.07 81.76 92.87 75.96 100 75.96C107.13 75.96 112.93 81.76 112.93 88.89ZM98.5 73.03C90.42 73.79 84.07 80.61 84.07 88.89C84.07 91.26 84.6 93.49 85.53 95.51L75 101.59L64.47 95.51C65.4 93.49 65.93 91.25 65.93 88.89C65.93 80.61 59.58 73.79 51.5 73.03V60.89L62.03 54.81C64.92 58.87 69.65 61.52 75 61.52C80.35 61.52 85.08 58.86 87.97 54.81L98.5 60.89V73.03ZM50 101.82C42.87 101.82 37.07 96.02 37.07 88.89C37.07 81.76 42.87 75.96 50 75.96C57.13 75.96 62.93 81.76 62.93 88.89C62.93 96.02 57.13 101.82 50 101.82ZM87.93 45.59C87.93 52.72 82.13 58.52 75 58.52C67.87 58.52 62.07 52.72 62.07 45.59C62.07 38.46 67.87 32.66 75 32.66C82.13 32.66 87.93 38.46 87.93 45.59ZM50 32.89L60.53 38.97C59.6 40.99 59.07 43.23 59.07 45.59C59.07 47.95 59.6 50.19 60.53 52.21L50 58.29L32 47.9L30.5 50.5L48.5 60.89V73.03C43.77 73.47 39.65 76 37.03 79.67L26.5 73.59V46.45L50 32.88V32.89ZM26.5 77.07L35.53 82.28C34.6 84.3 34.07 86.54 34.07 88.9C34.07 97.18 40.42 104 48.5 104.76V115.17L26.5 102.47V77.07ZM51.5 116.91V104.77C56.23 104.33 60.35 101.8 62.97 98.13L73.5 104.21V124.99H76.5V104.21L87.03 98.13C89.65 101.8 93.77 104.32 98.5 104.77V116.91L75 130.48L51.5 116.91ZM101.5 115.18V104.77C109.58 104.01 115.93 97.19 115.93 88.91C115.93 86.55 115.4 84.31 114.47 82.29L123.5 77.08V102.48L101.5 115.18ZM123.5 73.61L112.97 79.69C110.35 76.02 106.23 73.5 101.5 73.05V60.91L119.5 50.52L118 47.92L100 58.31L89.47 52.23C90.4 50.21 90.93 47.97 90.93 45.61C90.93 43.25 90.4 41.01 89.47 38.99L100 32.91L123.5 46.48V73.62V73.61Z" fill="#FF5F46"/>
<path d="M43.5 95.4004H56.5V82.4004H43.5V95.4004ZM46.5 85.4004H53.5V92.4004H46.5V85.4004Z" fill="#FF5F46"/>
<path d="M75 39.0996C71.42 39.0996 68.5 42.0196 68.5 45.5996C68.5 49.1796 71.42 52.0996 75 52.0996C78.58 52.0996 81.5 49.1796 81.5 45.5996C81.5 42.0196 78.58 39.0996 75 39.0996ZM75 49.0996C73.07 49.0996 71.5 47.5296 71.5 45.5996C71.5 43.6696 73.07 42.0996 75 42.0996C76.93 42.0996 78.5 43.6696 78.5 45.5996C78.5 47.5296 76.93 49.0996 75 49.0996Z" fill="#FF5F46"/>
<path d="M91.59 93.7498H108.52L100.06 79.0898L91.59 93.7498ZM96.79 90.7498L100.06 85.0898L103.33 90.7498H96.79Z" fill="#FF5F46"/>
<path d="M75 72.7402L57.25 62.4902L55.75 65.0902L73.5 75.3302V95.8302H76.5V75.3302L94.25 65.0902L92.75 62.4902L75 72.7402Z" fill="#FF5F46"/>
</svg>
