<svg width="16" height="16" viewBox="0 0 16 16" fill="none" xmlns="http://www.w3.org/2000/svg">
<path d="M3.39373 5.58639C3.91293 3.52534 5.77786 2 8 2C10.5504 2 12.6314 4.01005 12.7451 6.5324C14.1591 6.7189 15.3247 7.69323 15.7866 9H14.1211C13.7175 8.39701 13.0301 8 12.25 8H12C11.5858 8 11.25 7.66421 11.25 7.25V6.75C11.25 4.95507 9.79493 3.5 8 3.5C6.34131 3.5 4.97186 4.74324 4.7745 6.34833C4.73041 6.70685 4.43704 6.98301 4.07651 7.00536C2.63892 7.09448 1.5 8.28952 1.5 9.75C1.5 11.1845 2.59873 12.3629 4 12.4888V14C3.93845 14 3.87864 13.9926 3.8214 13.9786C1.67511 13.7633 0 11.9526 0 9.75C0 7.69604 1.45669 5.98279 3.39373 5.58639Z" fill="#FF3621"/>
<path fill-rule="evenodd" clip-rule="evenodd" d="M7.38761 9.50837C8.09488 9.18194 9.01926 9 10 9C10.9807 9 11.9051 9.18194 12.6124 9.50837C13.256 9.8054 14 10.3669 14 11.25V13.8026C14 14.2459 13.7951 14.6122 13.5384 14.8825C13.2854 15.1489 12.9547 15.3547 12.6032 15.5112C11.8985 15.825 10.9775 16 10 16C9.02253 16 8.10152 15.825 7.39677 15.5112C7.04533 15.3547 6.71457 15.1489 6.46157 14.8825C6.20487 14.6122 6 14.2459 6 13.8026V11.25C6 10.3669 6.74405 9.8054 7.38761 9.50837ZM7.50492 11.25C7.52357 11.2889 7.61103 11.4427 8.0162 11.6297C8.48519 11.8461 9.18581 12 10 12C10.8142 12 11.5148 11.8461 11.9838 11.6297C12.389 11.4427 12.4764 11.2889 12.4951 11.25C12.4764 11.2111 12.389 11.0573 11.9838 10.8703C11.5148 10.6539 10.8142 10.5 10 10.5C9.18581 10.5 8.48519 10.6539 8.0162 10.8703C7.61103 11.0573 7.52357 11.2111 7.50492 11.25ZM10 13.5C10.9296 13.5 11.8086 13.3365 12.5 13.0415V13.7863C12.4944 13.7968 12.4809 13.8178 12.4508 13.8495C12.3749 13.9294 12.2297 14.0355 11.993 14.1409C11.5214 14.3509 10.8175 14.5 10 14.5C9.18254 14.5 8.47856 14.3509 8.00703 14.1409C7.77034 14.0355 7.62515 13.9294 7.54923 13.8495C7.51915 13.8178 7.50559 13.7968 7.5 13.7863V13.0415C8.19144 13.3365 9.0704 13.5 10 13.5Z" fill="#FF3621"/>
</svg>
