<svg width="150" height="150" viewBox="0 0 150 150" fill="none" xmlns="http://www.w3.org/2000/svg">
<path d="M50.2883 100.34C48.646 98.9501 46.719 97.8501 44.5839 97.1201C46.6642 95.2301 47.989 92.3601 47.989 89.1501C47.989 83.4401 43.7847 78.8201 38.6058 78.8201C33.427 78.8201 29.2226 83.4401 29.2226 89.1501C29.2226 92.3601 30.5474 95.2201 32.6277 97.1201C26.1131 99.3401 21.4598 105.06 21.4598 111.78V123.57H90.0547M99.8978 100.34C101.54 98.9501 103.467 97.8501 105.602 97.1201C103.522 95.2301 102.197 92.3601 102.197 89.1501C102.197 83.4401 106.401 78.8201 111.58 78.8201C116.759 78.8201 120.963 83.4401 120.963 89.1501C120.963 92.3601 119.639 95.2201 117.558 97.1201C124.073 99.3401 128.726 105.06 128.726 111.78V123.57H98.8029V116.21C98.8029 106.91 92.3649 99.0001 83.354 95.9301C86.2336 93.3101 88.073 89.3501 88.073 84.9101C88.073 77.0201 82.2591 70.6201 75.0985 70.6201C67.9379 70.6201 62.1241 77.0201 62.1241 84.9101C62.1241 89.3401 63.9635 93.3101 66.843 95.9301C57.8212 99.0001 51.3941 106.91 51.3941 116.21V123.57M49.7409 55.6201H69.0876L74.354 63.9101L79.5985 55.6201H107.858V63.9101L116.737 55.6201H121.062C125.299 55.6201 128.726 52.4901 128.726 48.6201V42.9501M33.219 35.6301H128.726V32.6001C128.726 28.7301 125.299 25.6001 121.062 25.6001H29.1241C24.8868 25.6001 21.4598 28.7301 21.4598 32.6001V37.6201M115.478 44.2601H21.4598V48.6301C21.4598 52.5001 24.8868 55.6301 29.1241 55.6301H33.4489L42.3285 63.9201V55.6301" stroke="#FF5F46" stroke-width="3.2" stroke-miterlimit="3"/>
</svg>
