<svg width="16" height="16" viewBox="0 0 16 16" fill="none" xmlns="http://www.w3.org/2000/svg">
<path fill-rule="evenodd" clip-rule="evenodd" d="M2.05785 13.9339L5.88485 12.2113L9.5602 14.8575C9.56524 14.8612 9.57032 14.8648 9.57546 14.8683C9.79239 15.0173 10.0712 15.0414 10.31 14.9329L14.5578 13.0209C14.8269 12.8997 15 12.6321 15 12.337V2.75C15 2.49549 14.8709 2.25835 14.6572 2.12017C14.4435 1.98199 14.1742 1.96163 13.9422 2.06609L10.1152 3.78874L6.43992 1.14257L6.42454 1.13172C6.3135 1.05547 6.18624 1.01192 6.05644 1.00213C6.03449 1.00047 6.01248 0.999782 5.99046 1.00006C5.88825 1.00135 5.78591 1.02351 5.69002 1.06705L1.44215 2.97914C1.17305 3.10027 1 3.36794 1 3.66305V13.25C1 13.5045 1.12907 13.7417 1.34281 13.8798C1.55654 14.018 1.82576 14.0384 2.05785 13.9339ZM2.5 4.14793L5.25 2.91008V10.8521L2.5 12.0899V4.14793ZM10.75 5.14793V13.0899L13.5 11.8521V3.91008L10.75 5.14793ZM9.25 5.01418L6.75 3.21418V10.9858L9.25 12.7858V5.01418Z" fill="#FF3621"/>
</svg>
