<svg width="896" height="735" viewBox="0 0 896 735" fill="none" xmlns="http://www.w3.org/2000/svg">
<g filter="url(#filter0_dddddd_1117_13806)">
<path d="M192 196.45C192 120.538 253.538 59.0001 329.45 59.0001H566.55C642.462 59.0001 704 120.538 704 196.45V433.55C704 509.462 642.462 571 566.55 571H329.45C253.538 571 192 509.462 192 433.55V196.45Z" fill="white"/>
</g>
<path d="M365.146 296.995C399.299 296.995 426.986 269.308 426.986 235.154C426.986 201 399.299 173.312 365.146 173.312C330.992 173.312 303.305 201 303.305 235.154C303.305 269.308 330.992 296.995 365.146 296.995Z" fill="#FABFBA"/>
<path d="M530.251 462.362C564.405 462.362 592.092 434.675 592.092 400.521C592.092 366.367 564.405 338.68 530.251 338.68C496.097 338.68 468.41 366.367 468.41 400.521C468.41 434.675 496.097 462.362 530.251 462.362Z" fill="#FABFBA"/>
<path d="M426.986 400.533C426.986 434.68 399.292 462.375 365.146 462.375C330.999 462.375 303.305 434.68 303.305 400.533C303.305 366.386 330.999 338.692 365.146 338.692H383.429C430.213 338.692 468.124 300.781 468.124 253.996V235.444C468.124 201.297 495.818 173.603 529.965 173.603C564.112 173.603 591.806 201.297 591.806 235.444C591.806 269.591 564.112 297.285 529.965 297.285H511.681C464.897 297.285 426.986 335.197 426.986 381.981V400.533Z" fill="#FF5F46"/>
<defs>
<filter id="filter0_dddddd_1117_13806" x="0.639999" y="0.120117" width="894.72" height="894.72" filterUnits="userSpaceOnUse" color-interpolation-filters="sRGB">
<feFlood flood-opacity="0" result="BackgroundImageFix"/>
<feColorMatrix in="SourceAlpha" type="matrix" values="0 0 0 0 0 0 0 0 0 0 0 0 0 0 0 0 0 0 127 0" result="hardAlpha"/>
<feOffset dy="3.68"/>
<feGaussianBlur stdDeviation="2.76"/>
<feColorMatrix type="matrix" values="0 0 0 0 0.105882 0 0 0 0 0.192157 0 0 0 0 0.223529 0 0 0 0.0196802 0"/>
<feBlend mode="normal" in2="BackgroundImageFix" result="effect1_dropShadow_1117_13806"/>
<feColorMatrix in="SourceAlpha" type="matrix" values="0 0 0 0 0 0 0 0 0 0 0 0 0 0 0 0 0 0 127 0" result="hardAlpha"/>
<feOffset dy="7.36"/>
<feGaussianBlur stdDeviation="7.36"/>
<feColorMatrix type="matrix" values="0 0 0 0 0.105882 0 0 0 0 0.192157 0 0 0 0 0.223529 0 0 0 0.04 0"/>
<feBlend mode="normal" in2="effect1_dropShadow_1117_13806" result="effect2_dropShadow_1117_13806"/>
<feColorMatrix in="SourceAlpha" type="matrix" values="0 0 0 0 0 0 0 0 0 0 0 0 0 0 0 0 0 0 127 0" result="hardAlpha"/>
<feOffset dy="16.56"/>
<feGaussianBlur stdDeviation="11.96"/>
<feColorMatrix type="matrix" values="0 0 0 0 0.105882 0 0 0 0 0.192157 0 0 0 0 0.223529 0 0 0 0.035 0"/>
<feBlend mode="normal" in2="effect2_dropShadow_1117_13806" result="effect3_dropShadow_1117_13806"/>
<feColorMatrix in="SourceAlpha" type="matrix" values="0 0 0 0 0 0 0 0 0 0 0 0 0 0 0 0 0 0 127 0" result="hardAlpha"/>
<feOffset dy="29.44"/>
<feGaussianBlur stdDeviation="22.08"/>
<feColorMatrix type="matrix" values="0 0 0 0 0.105882 0 0 0 0 0.192157 0 0 0 0 0.223529 0 0 0 0.04 0"/>
<feBlend mode="normal" in2="effect3_dropShadow_1117_13806" result="effect4_dropShadow_1117_13806"/>
<feColorMatrix in="SourceAlpha" type="matrix" values="0 0 0 0 0 0 0 0 0 0 0 0 0 0 0 0 0 0 127 0" result="hardAlpha"/>
<feOffset dy="58.88"/>
<feGaussianBlur stdDeviation="36.8"/>
<feColorMatrix type="matrix" values="0 0 0 0 0.105882 0 0 0 0 0.192157 0 0 0 0 0.223529 0 0 0 0.0503198 0"/>
<feBlend mode="normal" in2="effect4_dropShadow_1117_13806" result="effect5_dropShadow_1117_13806"/>
<feColorMatrix in="SourceAlpha" type="matrix" values="0 0 0 0 0 0 0 0 0 0 0 0 0 0 0 0 0 0 127 0" result="hardAlpha"/>
<feOffset dy="132.48"/>
<feGaussianBlur stdDeviation="95.68"/>
<feColorMatrix type="matrix" values="0 0 0 0 0.105882 0 0 0 0 0.192157 0 0 0 0 0.223529 0 0 0 0.07 0"/>
<feBlend mode="normal" in2="effect5_dropShadow_1117_13806" result="effect6_dropShadow_1117_13806"/>
<feBlend mode="normal" in="SourceGraphic" in2="effect6_dropShadow_1117_13806" result="shape"/>
</filter>
</defs>
</svg>
