<svg width="896" height="735" viewBox="0 0 896 735" fill="none" xmlns="http://www.w3.org/2000/svg">
<g filter="url(#filter0_dddddd_1117_12724)">
<path d="M192 196.45C192 120.538 253.538 59 329.45 59H566.55C642.462 59 704 120.538 704 196.45V433.55C704 509.462 642.462 571 566.55 571H329.45C253.538 571 192 509.462 192 433.55V196.45Z" fill="white"/>
</g>
<path d="M303.303 209.411C303.303 229.348 319.465 245.51 339.401 245.51V245.51C359.338 245.51 375.5 229.348 375.5 209.411V209.411C375.5 189.474 359.338 173.312 339.401 173.312V173.312C319.465 173.312 303.303 189.474 303.303 209.411V209.411Z" fill="#FF5F46"/>
<path d="M519.896 317.707C519.896 337.644 536.058 353.806 555.995 353.806V353.806C575.932 353.806 592.094 337.644 592.094 317.707V317.707C592.094 297.77 575.932 281.608 555.995 281.608V281.608C536.058 281.608 519.896 297.77 519.896 317.707V317.707Z" fill="#FF5F46"/>
<path d="M303.303 426.003C303.303 445.94 319.465 462.102 339.401 462.102V462.102C359.338 462.102 375.5 445.94 375.5 426.003V426.003C375.5 406.066 359.338 389.904 339.401 389.904V389.904C319.465 389.904 303.303 406.066 303.303 426.003V426.003Z" fill="#FF5F46"/>
<path d="M405.035 245.51L592.092 245.51L592.092 173.312L405.035 173.312L405.035 245.51Z" fill="#FABFBA"/>
<rect width="187.057" height="72.1974" transform="matrix(1 8.20662e-08 9.31289e-08 -1 303.303 353.806)" fill="#FABFBA"/>
<rect width="187.057" height="72.1974" transform="matrix(1 8.36077e-08 9.515e-08 -1 405.035 462.102)" fill="#FABFBA"/>
<defs>
<filter id="filter0_dddddd_1117_12724" x="0.639999" y="0.119995" width="894.72" height="894.72" filterUnits="userSpaceOnUse" color-interpolation-filters="sRGB">
<feFlood flood-opacity="0" result="BackgroundImageFix"/>
<feColorMatrix in="SourceAlpha" type="matrix" values="0 0 0 0 0 0 0 0 0 0 0 0 0 0 0 0 0 0 127 0" result="hardAlpha"/>
<feOffset dy="3.68"/>
<feGaussianBlur stdDeviation="2.76"/>
<feColorMatrix type="matrix" values="0 0 0 0 0.105882 0 0 0 0 0.192157 0 0 0 0 0.223529 0 0 0 0.0196802 0"/>
<feBlend mode="normal" in2="BackgroundImageFix" result="effect1_dropShadow_1117_12724"/>
<feColorMatrix in="SourceAlpha" type="matrix" values="0 0 0 0 0 0 0 0 0 0 0 0 0 0 0 0 0 0 127 0" result="hardAlpha"/>
<feOffset dy="7.36"/>
<feGaussianBlur stdDeviation="7.36"/>
<feColorMatrix type="matrix" values="0 0 0 0 0.105882 0 0 0 0 0.192157 0 0 0 0 0.223529 0 0 0 0.04 0"/>
<feBlend mode="normal" in2="effect1_dropShadow_1117_12724" result="effect2_dropShadow_1117_12724"/>
<feColorMatrix in="SourceAlpha" type="matrix" values="0 0 0 0 0 0 0 0 0 0 0 0 0 0 0 0 0 0 127 0" result="hardAlpha"/>
<feOffset dy="16.56"/>
<feGaussianBlur stdDeviation="11.96"/>
<feColorMatrix type="matrix" values="0 0 0 0 0.105882 0 0 0 0 0.192157 0 0 0 0 0.223529 0 0 0 0.035 0"/>
<feBlend mode="normal" in2="effect2_dropShadow_1117_12724" result="effect3_dropShadow_1117_12724"/>
<feColorMatrix in="SourceAlpha" type="matrix" values="0 0 0 0 0 0 0 0 0 0 0 0 0 0 0 0 0 0 127 0" result="hardAlpha"/>
<feOffset dy="29.44"/>
<feGaussianBlur stdDeviation="22.08"/>
<feColorMatrix type="matrix" values="0 0 0 0 0.105882 0 0 0 0 0.192157 0 0 0 0 0.223529 0 0 0 0.04 0"/>
<feBlend mode="normal" in2="effect3_dropShadow_1117_12724" result="effect4_dropShadow_1117_12724"/>
<feColorMatrix in="SourceAlpha" type="matrix" values="0 0 0 0 0 0 0 0 0 0 0 0 0 0 0 0 0 0 127 0" result="hardAlpha"/>
<feOffset dy="58.88"/>
<feGaussianBlur stdDeviation="36.8"/>
<feColorMatrix type="matrix" values="0 0 0 0 0.105882 0 0 0 0 0.192157 0 0 0 0 0.223529 0 0 0 0.0503198 0"/>
<feBlend mode="normal" in2="effect4_dropShadow_1117_12724" result="effect5_dropShadow_1117_12724"/>
<feColorMatrix in="SourceAlpha" type="matrix" values="0 0 0 0 0 0 0 0 0 0 0 0 0 0 0 0 0 0 127 0" result="hardAlpha"/>
<feOffset dy="132.48"/>
<feGaussianBlur stdDeviation="95.68"/>
<feColorMatrix type="matrix" values="0 0 0 0 0.105882 0 0 0 0 0.192157 0 0 0 0 0.223529 0 0 0 0.07 0"/>
<feBlend mode="normal" in2="effect5_dropShadow_1117_12724" result="effect6_dropShadow_1117_12724"/>
<feBlend mode="normal" in="SourceGraphic" in2="effect6_dropShadow_1117_12724" result="shape"/>
</filter>
</defs>
</svg>
