<svg width="16" height="16" viewBox="0 0 16 16" fill="none" xmlns="http://www.w3.org/2000/svg">
<path fill-rule="evenodd" clip-rule="evenodd" d="M13.2498 2.00007C13.664 2.00007 13.9998 2.33585 13.9998 2.75007L13.9998 3.64205C13.9998 6.24778 12.8442 8.6642 10.9302 10.2981H10.9444L10.9444 10.9236C10.9444 12.4695 10.1921 13.9187 8.92783 14.8083L7.43142 15.8612C7.22703 16.005 6.96443 16.0376 6.7311 15.948C6.49777 15.8585 6.32438 15.6586 6.26868 15.415L5.54905 12.2668L3.73447 10.4522L0.58851 9.7497C0.344222 9.69516 0.143248 9.52233 0.0527239 9.28897C-0.0378003 9.05561 -0.00594097 8.79247 0.137659 8.58746L1.19329 7.08035C2.08223 5.81121 3.53433 5.05543 5.08382 5.05542L5.7017 5.05542V5.0697C7.3356 3.15569 9.75204 2.00005 12.3578 2.00006L13.2498 2.00007ZM7.10469 12.3409L7.48199 13.9915L8.06463 13.5815C8.81621 13.0527 9.30334 12.2348 9.41818 11.3356C9.1483 11.4817 8.86895 11.6146 8.58081 11.7332L7.10469 12.3409ZM4.26657 7.41906L3.65768 8.8981L2.00925 8.53001L2.42189 7.9409C2.94893 7.18844 3.76531 6.69972 4.66366 6.58267C4.51775 6.85224 4.38505 7.13126 4.26657 7.41906ZM12.4998 3.50006L12.3578 3.50006C11.3939 3.50006 10.4613 3.69089 9.60372 4.04327L11.9566 6.39612C12.309 5.53851 12.4998 4.60591 12.4998 3.64205V3.50006ZM5.65363 7.99009C6.19781 6.66826 7.10394 5.5698 8.22939 4.79025L11.2096 7.77044C10.43 8.89586 9.33159 9.80198 8.00978 10.3462L6.40884 11.0052L4.99457 9.59097L5.65363 7.99009Z" fill="#FF3621"/>
<path d="M2.21945 10.7197L2.09815 10.841C1.39489 11.5442 0.999806 12.4981 0.999806 13.4926V14.25C0.999806 14.6642 1.33559 15 1.74981 15L2.50715 15C3.50171 15 4.45553 14.6049 5.15879 13.9016L5.28011 13.7803L4.21946 12.7197L4.09813 12.841C3.67618 13.2629 3.10389 13.5 2.50715 13.5H2.49981V13.4926C2.49981 12.8959 2.73686 12.3236 3.15881 11.9016L3.28012 11.7803L2.21945 10.7197Z" fill="#FF3621"/>
</svg>
