<svg width="166" height="166" viewBox="0 0 166 166" fill="none" xmlns="http://www.w3.org/2000/svg">
<path d="M166 7.25609e-06L83 0L83 166L166 166L166 7.25609e-06Z" fill="#1B5162"/>
<path d="M83 7.25609e-06L0 0L-1.45122e-05 166L83 166L83 7.25609e-06Z" fill="#618794"/>
<path d="M22 93.5L83 129L144 93.5L83 58L22 93.5Z" fill="#1B3139"/>
<path d="M60.1426 51.3125L67.7711 46.875L83.0001 38L144 73.5L128.757 82.375L121.136 86.8125M60.1426 51.3125L61.5001 46.875M60.1426 51.3125H62.8213H65.5001" stroke="white" stroke-width="2" stroke-linecap="round"/>
<path d="M105.857 95.6875L98.2289 100.125L82.9999 109L21.9999 73.5L37.2429 64.625L44.8644 60.1875M105.857 95.6875L104.5 100.125M105.857 95.6875H103.179H100.5" stroke="white" stroke-width="2" stroke-linecap="round"/>
<circle cx="53" cy="56" r="5" fill="#1B5162"/>
<circle cx="113" cy="91" r="5" fill="white"/>
</svg>
